<?xml version="1.0" encoding="utf-8" standalone="no"?>
<!DOCTYPE svg PUBLIC "-//W3C//DTD SVG 1.1//EN"
  "http://www.w3.org/Graphics/SVG/1.1/DTD/svg11.dtd">
<svg xmlns:xlink="http://www.w3.org/1999/xlink" width="432pt" height="360pt" viewBox="0 0 432 360" xmlns="http://www.w3.org/2000/svg" version="1.1">
 <metadata>
  <rdf:RDF xmlns:dc="http://purl.org/dc/elements/1.1/" xmlns:cc="http://creativecommons.org/ns#" xmlns:rdf="http://www.w3.org/1999/02/22-rdf-syntax-ns#">
   <cc:Work>
    <dc:type rdf:resource="http://purl.org/dc/dcmitype/StillImage"/>
    <dc:date>2024-06-20T02:34:53.044298</dc:date>
    <dc:format>image/svg+xml</dc:format>
    <dc:creator>
     <cc:Agent>
      <dc:title>Matplotlib v3.7.1, https://matplotlib.org/</dc:title>
     </cc:Agent>
    </dc:creator>
   </cc:Work>
  </rdf:RDF>
 </metadata>
 <defs>
  <style type="text/css">*{stroke-linejoin: round; stroke-linecap: butt}</style>
 </defs>
 <g id="figure_1">
  <g id="patch_1">
   <path d="M 0 360 
L 432 360 
L 432 0 
L 0 0 
z
" style="fill: #ffffff"/>
  </g>
  <g id="axes_1">
   <g id="patch_2">
    <path d="M 54 320.4 
L 388.8 320.4 
L 388.8 43.2 
L 54 43.2 
z
" style="fill: #eaeaf2"/>
   </g>
   <g id="matplotlib.axis_1">
    <g id="xtick_1">
     <g id="line2d_1">
      <path d="M 81.330612 320.4 
L 81.330612 43.2 
" clip-path="url(#p905f8f33e2)" style="fill: none; stroke: #ffffff; stroke-linecap: round"/>
     </g>
     <g id="text_1">
      <!-- 5 -->
      <g style="fill: #262626" transform="translate(77.354542 340.135672) scale(0.143 -0.143)">
       <defs>
        <path id="ArialMT-35" d="M 266 1200 
L 856 1250 
Q 922 819 1161 601 
Q 1400 384 1738 384 
Q 2144 384 2425 690 
Q 2706 997 2706 1503 
Q 2706 1984 2436 2262 
Q 2166 2541 1728 2541 
Q 1456 2541 1237 2417 
Q 1019 2294 894 2097 
L 366 2166 
L 809 4519 
L 3088 4519 
L 3088 3981 
L 1259 3981 
L 1013 2750 
Q 1425 3038 1878 3038 
Q 2478 3038 2890 2622 
Q 3303 2206 3303 1553 
Q 3303 931 2941 478 
Q 2500 -78 1738 -78 
Q 1113 -78 717 272 
Q 322 622 266 1200 
z
" transform="scale(0.015625)"/>
       </defs>
       <use xlink:href="#ArialMT-35"/>
      </g>
     </g>
    </g>
    <g id="xtick_2">
     <g id="line2d_2">
      <path d="M 115.493878 320.4 
L 115.493878 43.2 
" clip-path="url(#p905f8f33e2)" style="fill: none; stroke: #ffffff; stroke-linecap: round"/>
     </g>
     <g id="text_2">
      <!-- 10 -->
      <g style="fill: #262626" transform="translate(107.541737 340.135672) scale(0.143 -0.143)">
       <defs>
        <path id="ArialMT-31" d="M 2384 0 
L 1822 0 
L 1822 3584 
Q 1619 3391 1289 3197 
Q 959 3003 697 2906 
L 697 3450 
Q 1169 3672 1522 3987 
Q 1875 4303 2022 4600 
L 2384 4600 
L 2384 0 
z
" transform="scale(0.015625)"/>
        <path id="ArialMT-30" d="M 266 2259 
Q 266 3072 433 3567 
Q 600 4063 929 4331 
Q 1259 4600 1759 4600 
Q 2128 4600 2406 4451 
Q 2684 4303 2865 4023 
Q 3047 3744 3150 3342 
Q 3253 2941 3253 2259 
Q 3253 1453 3087 958 
Q 2922 463 2592 192 
Q 2263 -78 1759 -78 
Q 1097 -78 719 397 
Q 266 969 266 2259 
z
M 844 2259 
Q 844 1131 1108 757 
Q 1372 384 1759 384 
Q 2147 384 2411 759 
Q 2675 1134 2675 2259 
Q 2675 3391 2411 3762 
Q 2147 4134 1753 4134 
Q 1366 4134 1134 3806 
Q 844 3388 844 2259 
z
" transform="scale(0.015625)"/>
       </defs>
       <use xlink:href="#ArialMT-31"/>
       <use xlink:href="#ArialMT-30" x="55.615234"/>
      </g>
     </g>
    </g>
    <g id="xtick_3">
     <g id="line2d_3">
      <path d="M 149.657143 320.4 
L 149.657143 43.2 
" clip-path="url(#p905f8f33e2)" style="fill: none; stroke: #ffffff; stroke-linecap: round"/>
     </g>
     <g id="text_3">
      <!-- 15 -->
      <g style="fill: #262626" transform="translate(141.705002 340.135672) scale(0.143 -0.143)">
       <use xlink:href="#ArialMT-31"/>
       <use xlink:href="#ArialMT-35" x="55.615234"/>
      </g>
     </g>
    </g>
    <g id="xtick_4">
     <g id="line2d_4">
      <path d="M 183.820408 320.4 
L 183.820408 43.2 
" clip-path="url(#p905f8f33e2)" style="fill: none; stroke: #ffffff; stroke-linecap: round"/>
     </g>
     <g id="text_4">
      <!-- 20 -->
      <g style="fill: #262626" transform="translate(175.868268 340.135672) scale(0.143 -0.143)">
       <defs>
        <path id="ArialMT-32" d="M 3222 541 
L 3222 0 
L 194 0 
Q 188 203 259 391 
Q 375 700 629 1000 
Q 884 1300 1366 1694 
Q 2113 2306 2375 2664 
Q 2638 3022 2638 3341 
Q 2638 3675 2398 3904 
Q 2159 4134 1775 4134 
Q 1369 4134 1125 3890 
Q 881 3647 878 3216 
L 300 3275 
Q 359 3922 746 4261 
Q 1134 4600 1788 4600 
Q 2447 4600 2831 4234 
Q 3216 3869 3216 3328 
Q 3216 3053 3103 2787 
Q 2991 2522 2730 2228 
Q 2469 1934 1863 1422 
Q 1356 997 1212 845 
Q 1069 694 975 541 
L 3222 541 
z
" transform="scale(0.015625)"/>
       </defs>
       <use xlink:href="#ArialMT-32"/>
       <use xlink:href="#ArialMT-30" x="55.615234"/>
      </g>
     </g>
    </g>
    <g id="xtick_5">
     <g id="line2d_5">
      <path d="M 217.983673 320.4 
L 217.983673 43.2 
" clip-path="url(#p905f8f33e2)" style="fill: none; stroke: #ffffff; stroke-linecap: round"/>
     </g>
     <g id="text_5">
      <!-- 25 -->
      <g style="fill: #262626" transform="translate(210.031533 340.135672) scale(0.143 -0.143)">
       <use xlink:href="#ArialMT-32"/>
       <use xlink:href="#ArialMT-35" x="55.615234"/>
      </g>
     </g>
    </g>
    <g id="xtick_6">
     <g id="line2d_6">
      <path d="M 252.146939 320.4 
L 252.146939 43.2 
" clip-path="url(#p905f8f33e2)" style="fill: none; stroke: #ffffff; stroke-linecap: round"/>
     </g>
     <g id="text_6">
      <!-- 30 -->
      <g style="fill: #262626" transform="translate(244.194798 340.135672) scale(0.143 -0.143)">
       <defs>
        <path id="ArialMT-33" d="M 269 1209 
L 831 1284 
Q 928 806 1161 595 
Q 1394 384 1728 384 
Q 2125 384 2398 659 
Q 2672 934 2672 1341 
Q 2672 1728 2419 1979 
Q 2166 2231 1775 2231 
Q 1616 2231 1378 2169 
L 1441 2663 
Q 1497 2656 1531 2656 
Q 1891 2656 2178 2843 
Q 2466 3031 2466 3422 
Q 2466 3731 2256 3934 
Q 2047 4138 1716 4138 
Q 1388 4138 1169 3931 
Q 950 3725 888 3313 
L 325 3413 
Q 428 3978 793 4289 
Q 1159 4600 1703 4600 
Q 2078 4600 2393 4439 
Q 2709 4278 2876 4000 
Q 3044 3722 3044 3409 
Q 3044 3113 2884 2869 
Q 2725 2625 2413 2481 
Q 2819 2388 3044 2092 
Q 3269 1797 3269 1353 
Q 3269 753 2831 336 
Q 2394 -81 1725 -81 
Q 1122 -81 723 278 
Q 325 638 269 1209 
z
" transform="scale(0.015625)"/>
       </defs>
       <use xlink:href="#ArialMT-33"/>
       <use xlink:href="#ArialMT-30" x="55.615234"/>
      </g>
     </g>
    </g>
    <g id="xtick_7">
     <g id="line2d_7">
      <path d="M 286.310204 320.4 
L 286.310204 43.2 
" clip-path="url(#p905f8f33e2)" style="fill: none; stroke: #ffffff; stroke-linecap: round"/>
     </g>
     <g id="text_7">
      <!-- 35 -->
      <g style="fill: #262626" transform="translate(278.358063 340.135672) scale(0.143 -0.143)">
       <use xlink:href="#ArialMT-33"/>
       <use xlink:href="#ArialMT-35" x="55.615234"/>
      </g>
     </g>
    </g>
    <g id="xtick_8">
     <g id="line2d_8">
      <path d="M 320.473469 320.4 
L 320.473469 43.2 
" clip-path="url(#p905f8f33e2)" style="fill: none; stroke: #ffffff; stroke-linecap: round"/>
     </g>
     <g id="text_8">
      <!-- 40 -->
      <g style="fill: #262626" transform="translate(312.521329 340.135672) scale(0.143 -0.143)">
       <defs>
        <path id="ArialMT-34" d="M 2069 0 
L 2069 1097 
L 81 1097 
L 81 1613 
L 2172 4581 
L 2631 4581 
L 2631 1613 
L 3250 1613 
L 3250 1097 
L 2631 1097 
L 2631 0 
L 2069 0 
z
M 2069 1613 
L 2069 3678 
L 634 1613 
L 2069 1613 
z
" transform="scale(0.015625)"/>
       </defs>
       <use xlink:href="#ArialMT-34"/>
       <use xlink:href="#ArialMT-30" x="55.615234"/>
      </g>
     </g>
    </g>
    <g id="xtick_9">
     <g id="line2d_9">
      <path d="M 354.636735 320.4 
L 354.636735 43.2 
" clip-path="url(#p905f8f33e2)" style="fill: none; stroke: #ffffff; stroke-linecap: round"/>
     </g>
     <g id="text_9">
      <!-- 45 -->
      <g style="fill: #262626" transform="translate(346.684594 340.135672) scale(0.143 -0.143)">
       <use xlink:href="#ArialMT-34"/>
       <use xlink:href="#ArialMT-35" x="55.615234"/>
      </g>
     </g>
    </g>
   </g>
   <g id="matplotlib.axis_2">
    <g id="ytick_1">
     <g id="line2d_10">
      <path d="M 54 320.4 
L 388.8 320.4 
" clip-path="url(#p905f8f33e2)" style="fill: none; stroke: #ffffff; stroke-linecap: round"/>
     </g>
     <g id="text_10">
      <!-- −0.15 -->
      <g style="fill: #262626" transform="translate(8.318766 325.517836) scale(0.143 -0.143)">
       <defs>
        <path id="ArialMT-2212" d="M 3381 1997 
L 356 1997 
L 356 2522 
L 3381 2522 
L 3381 1997 
z
" transform="scale(0.015625)"/>
        <path id="ArialMT-2e" d="M 581 0 
L 581 641 
L 1222 641 
L 1222 0 
L 581 0 
z
" transform="scale(0.015625)"/>
       </defs>
       <use xlink:href="#ArialMT-2212"/>
       <use xlink:href="#ArialMT-30" x="58.398438"/>
       <use xlink:href="#ArialMT-2e" x="114.013672"/>
       <use xlink:href="#ArialMT-31" x="141.796875"/>
       <use xlink:href="#ArialMT-35" x="197.412109"/>
      </g>
     </g>
    </g>
    <g id="ytick_2">
     <g id="line2d_11">
      <path d="M 54 264.96 
L 388.8 264.96 
" clip-path="url(#p905f8f33e2)" style="fill: none; stroke: #ffffff; stroke-linecap: round"/>
     </g>
     <g id="text_11">
      <!-- 0.00 -->
      <g style="fill: #262626" transform="translate(16.670859 270.077836) scale(0.143 -0.143)">
       <use xlink:href="#ArialMT-30"/>
       <use xlink:href="#ArialMT-2e" x="55.615234"/>
       <use xlink:href="#ArialMT-30" x="83.398438"/>
       <use xlink:href="#ArialMT-30" x="139.013672"/>
      </g>
     </g>
    </g>
    <g id="ytick_3">
     <g id="line2d_12">
      <path d="M 54 209.52 
L 388.8 209.52 
" clip-path="url(#p905f8f33e2)" style="fill: none; stroke: #ffffff; stroke-linecap: round"/>
     </g>
     <g id="text_12">
      <!-- 0.15 -->
      <g style="fill: #262626" transform="translate(16.670859 214.637836) scale(0.143 -0.143)">
       <use xlink:href="#ArialMT-30"/>
       <use xlink:href="#ArialMT-2e" x="55.615234"/>
       <use xlink:href="#ArialMT-31" x="83.398438"/>
       <use xlink:href="#ArialMT-35" x="139.013672"/>
      </g>
     </g>
    </g>
    <g id="ytick_4">
     <g id="line2d_13">
      <path d="M 54 154.08 
L 388.8 154.08 
" clip-path="url(#p905f8f33e2)" style="fill: none; stroke: #ffffff; stroke-linecap: round"/>
     </g>
     <g id="text_13">
      <!-- 0.30 -->
      <g style="fill: #262626" transform="translate(16.670859 159.197836) scale(0.143 -0.143)">
       <use xlink:href="#ArialMT-30"/>
       <use xlink:href="#ArialMT-2e" x="55.615234"/>
       <use xlink:href="#ArialMT-33" x="83.398438"/>
       <use xlink:href="#ArialMT-30" x="139.013672"/>
      </g>
     </g>
    </g>
    <g id="ytick_5">
     <g id="line2d_14">
      <path d="M 54 98.64 
L 388.8 98.64 
" clip-path="url(#p905f8f33e2)" style="fill: none; stroke: #ffffff; stroke-linecap: round"/>
     </g>
     <g id="text_14">
      <!-- 0.45 -->
      <g style="fill: #262626" transform="translate(16.670859 103.757836) scale(0.143 -0.143)">
       <use xlink:href="#ArialMT-30"/>
       <use xlink:href="#ArialMT-2e" x="55.615234"/>
       <use xlink:href="#ArialMT-34" x="83.398438"/>
       <use xlink:href="#ArialMT-35" x="139.013672"/>
      </g>
     </g>
    </g>
    <g id="ytick_6">
     <g id="line2d_15">
      <path d="M 54 43.2 
L 388.8 43.2 
" clip-path="url(#p905f8f33e2)" style="fill: none; stroke: #ffffff; stroke-linecap: round"/>
     </g>
     <g id="text_15">
      <!-- 0.60 -->
      <g style="fill: #262626" transform="translate(16.670859 48.317836) scale(0.143 -0.143)">
       <defs>
        <path id="ArialMT-36" d="M 3184 3459 
L 2625 3416 
Q 2550 3747 2413 3897 
Q 2184 4138 1850 4138 
Q 1581 4138 1378 3988 
Q 1113 3794 959 3422 
Q 806 3050 800 2363 
Q 1003 2672 1297 2822 
Q 1591 2972 1913 2972 
Q 2475 2972 2870 2558 
Q 3266 2144 3266 1488 
Q 3266 1056 3080 686 
Q 2894 316 2569 119 
Q 2244 -78 1831 -78 
Q 1128 -78 684 439 
Q 241 956 241 2144 
Q 241 3472 731 4075 
Q 1159 4600 1884 4600 
Q 2425 4600 2770 4297 
Q 3116 3994 3184 3459 
z
M 888 1484 
Q 888 1194 1011 928 
Q 1134 663 1356 523 
Q 1578 384 1822 384 
Q 2178 384 2434 671 
Q 2691 959 2691 1453 
Q 2691 1928 2437 2201 
Q 2184 2475 1800 2475 
Q 1419 2475 1153 2201 
Q 888 1928 888 1484 
z
" transform="scale(0.015625)"/>
       </defs>
       <use xlink:href="#ArialMT-30"/>
       <use xlink:href="#ArialMT-2e" x="55.615234"/>
       <use xlink:href="#ArialMT-36" x="83.398438"/>
       <use xlink:href="#ArialMT-30" x="139.013672"/>
      </g>
     </g>
    </g>
   </g>
   <g id="PolyCollection_1">
    <defs>
     <path id="mc0d28d20fe" d="M 54 -293.422701 
L 54 -272.127351 
L 60.832653 -245.198338 
L 67.665306 -227.901877 
L 74.497959 -216.18623 
L 81.330612 -212.878158 
L 88.163265 -209.281235 
L 94.995918 -206.49943 
L 101.828571 -205.084949 
L 108.661224 -203.241696 
L 115.493878 -202.269958 
L 122.326531 -201.319155 
L 129.159184 -199.279275 
L 135.991837 -197.098149 
L 142.82449 -195.970032 
L 149.657143 -195.773773 
L 156.489796 -194.435658 
L 163.322449 -192.038485 
L 170.155102 -192.176073 
L 176.987755 -190.511587 
L 183.820408 -188.920534 
L 190.653061 -187.468974 
L 197.485714 -185.984862 
L 204.318367 -184.892436 
L 211.15102 -183.03822 
L 217.983673 -182.241281 
L 224.816327 -180.868125 
L 231.64898 -180.762413 
L 238.481633 -178.54692 
L 245.314286 -177.806876 
L 252.146939 -175.786835 
L 258.979592 -174.673609 
L 265.812245 -173.620802 
L 272.644898 -171.933248 
L 279.477551 -171.51872 
L 286.310204 -170.103905 
L 293.142857 -170.162224 
L 299.97551 -168.710954 
L 306.808163 -166.962001 
L 313.640816 -165.757521 
L 320.473469 -165.119547 
L 327.306122 -164.038419 
L 334.138776 -163.728225 
L 340.971429 -162.400407 
L 347.804082 -161.494643 
L 354.636735 -160.949559 
L 361.469388 -159.756286 
L 368.302041 -158.052313 
L 375.134694 -156.052045 
L 381.967347 -155.745818 
L 388.8 -154.147974 
L 388.8 -173.106297 
L 388.8 -173.106297 
L 381.967347 -174.812878 
L 375.134694 -174.95146 
L 368.302041 -175.73045 
L 361.469388 -177.941746 
L 354.636735 -178.400356 
L 347.804082 -179.826751 
L 340.971429 -180.416476 
L 334.138776 -180.651992 
L 327.306122 -182.063545 
L 320.473469 -182.994892 
L 313.640816 -184.523979 
L 306.808163 -185.189581 
L 299.97551 -187.637548 
L 293.142857 -188.306695 
L 286.310204 -188.898355 
L 279.477551 -189.925474 
L 272.644898 -191.339989 
L 265.812245 -192.815998 
L 258.979592 -193.750384 
L 252.146939 -196.0084 
L 245.314286 -196.775141 
L 238.481633 -197.571526 
L 231.64898 -199.350946 
L 224.816327 -199.84259 
L 217.983673 -201.570754 
L 211.15102 -202.673248 
L 204.318367 -205.231972 
L 197.485714 -206.921717 
L 190.653061 -209.007293 
L 183.820408 -208.890897 
L 176.987755 -210.126144 
L 170.155102 -212.29288 
L 163.322449 -213.909559 
L 156.489796 -214.790894 
L 149.657143 -216.800625 
L 142.82449 -217.242695 
L 135.991837 -217.48414 
L 129.159184 -220.033138 
L 122.326531 -221.825045 
L 115.493878 -224.757477 
L 108.661224 -225.562406 
L 101.828571 -226.42705 
L 94.995918 -228.443128 
L 88.163265 -231.079621 
L 81.330612 -234.244178 
L 74.497959 -239.676469 
L 67.665306 -249.274134 
L 60.832653 -266.067847 
L 54 -293.422701 
z
" style="stroke: #4c72b0; stroke-opacity: 0.2"/>
    </defs>
    <g clip-path="url(#p905f8f33e2)">
     <use xlink:href="#mc0d28d20fe" x="0" y="360" style="fill: #4c72b0; fill-opacity: 0.2; stroke: #4c72b0; stroke-opacity: 0.2"/>
    </g>
   </g>
   <g id="PolyCollection_2">
    <defs>
     <path id="mac1ccc2859" d="M 54 -291.599964 
L 54 -270.410785 
L 60.832653 -240.810673 
L 67.665306 -223.305727 
L 74.497959 -212.589147 
L 81.330612 -210.017497 
L 88.163265 -205.772829 
L 94.995918 -203.420292 
L 101.828571 -201.630222 
L 108.661224 -200.720236 
L 115.493878 -199.302609 
L 122.326531 -198.887518 
L 129.159184 -196.768923 
L 135.991837 -194.366422 
L 142.82449 -193.91895 
L 149.657143 -193.379144 
L 156.489796 -191.651268 
L 163.322449 -190.62389 
L 170.155102 -189.163966 
L 176.987755 -187.21329 
L 183.820408 -186.380289 
L 190.653061 -185.839621 
L 197.485714 -184.463828 
L 204.318367 -182.523113 
L 211.15102 -181.356188 
L 217.983673 -179.7978 
L 224.816327 -178.876151 
L 231.64898 -178.041743 
L 238.481633 -175.711767 
L 245.314286 -175.478893 
L 252.146939 -174.490204 
L 258.979592 -172.52023 
L 265.812245 -170.93411 
L 272.644898 -169.494113 
L 279.477551 -169.162001 
L 286.310204 -168.720358 
L 293.142857 -167.490177 
L 299.97551 -166.70462 
L 306.808163 -166.039277 
L 313.640816 -164.293858 
L 320.473469 -163.15006 
L 327.306122 -162.067906 
L 334.138776 -160.791229 
L 340.971429 -159.955544 
L 347.804082 -159.75318 
L 354.636735 -158.189847 
L 361.469388 -158.766218 
L 368.302041 -156.338927 
L 375.134694 -155.212092 
L 381.967347 -154.337288 
L 388.8 -153.04144 
L 388.8 -171.003148 
L 388.8 -171.003148 
L 381.967347 -171.619054 
L 375.134694 -173.135786 
L 368.302041 -174.892195 
L 361.469388 -175.88815 
L 354.636735 -176.800016 
L 347.804082 -178.028255 
L 340.971429 -178.310003 
L 334.138776 -178.94342 
L 327.306122 -180.469843 
L 320.473469 -180.884386 
L 313.640816 -182.511262 
L 306.808163 -183.527613 
L 299.97551 -184.69494 
L 293.142857 -185.949052 
L 286.310204 -186.872541 
L 279.477551 -188.515589 
L 272.644898 -188.739026 
L 265.812245 -189.679519 
L 258.979592 -190.928257 
L 252.146939 -191.793239 
L 245.314286 -194.409634 
L 238.481633 -194.97059 
L 231.64898 -196.30974 
L 224.816327 -197.786728 
L 217.983673 -198.468218 
L 211.15102 -199.839079 
L 204.318367 -201.645519 
L 197.485714 -203.534097 
L 190.653061 -205.04644 
L 183.820408 -206.214565 
L 176.987755 -208.263899 
L 170.155102 -208.821627 
L 163.322449 -210.14175 
L 156.489796 -211.595653 
L 149.657143 -212.681846 
L 142.82449 -215.025692 
L 135.991837 -215.25519 
L 129.159184 -217.346978 
L 122.326531 -218.700416 
L 115.493878 -221.51 
L 108.661224 -222.128105 
L 101.828571 -224.402026 
L 94.995918 -225.276115 
L 88.163265 -227.724882 
L 81.330612 -232.179381 
L 74.497959 -235.166287 
L 67.665306 -246.250523 
L 60.832653 -262.486144 
L 54 -291.599964 
z
" style="stroke: #dd8452; stroke-opacity: 0.2"/>
    </defs>
    <g clip-path="url(#p905f8f33e2)">
     <use xlink:href="#mac1ccc2859" x="0" y="360" style="fill: #dd8452; fill-opacity: 0.2; stroke: #dd8452; stroke-opacity: 0.2"/>
    </g>
   </g>
   <g id="PolyCollection_3">
    <defs>
     <path id="m562a304b0a" d="M 54 -290.387499 
L 54 -270.242865 
L 60.832653 -241.635309 
L 67.665306 -225.242076 
L 74.497959 -214.03966 
L 81.330612 -211.319191 
L 88.163265 -207.527146 
L 94.995918 -203.533319 
L 101.828571 -202.705351 
L 108.661224 -201.662144 
L 115.493878 -200.503027 
L 122.326531 -198.202602 
L 129.159184 -197.074428 
L 135.991837 -194.63748 
L 142.82449 -195.03442 
L 149.657143 -193.675293 
L 156.489796 -191.431982 
L 163.322449 -191.212298 
L 170.155102 -189.305483 
L 176.987755 -187.404417 
L 183.820408 -186.542636 
L 190.653061 -185.898137 
L 197.485714 -184.395643 
L 204.318367 -182.852819 
L 211.15102 -180.818127 
L 217.983673 -179.121917 
L 224.816327 -178.858624 
L 231.64898 -177.804063 
L 238.481633 -176.277088 
L 245.314286 -175.921806 
L 252.146939 -173.24721 
L 258.979592 -172.362188 
L 265.812245 -171.853739 
L 272.644898 -169.869495 
L 279.477551 -168.597958 
L 286.310204 -167.785816 
L 293.142857 -167.559457 
L 299.97551 -166.220354 
L 306.808163 -164.545158 
L 313.640816 -164.356909 
L 320.473469 -162.178962 
L 327.306122 -162.054573 
L 334.138776 -161.060445 
L 340.971429 -160.663363 
L 347.804082 -159.141803 
L 354.636735 -158.929554 
L 361.469388 -158.39208 
L 368.302041 -156.329222 
L 375.134694 -154.808079 
L 381.967347 -154.158767 
L 388.8 -152.491486 
L 388.8 -169.913949 
L 388.8 -169.913949 
L 381.967347 -171.553913 
L 375.134694 -172.694387 
L 368.302041 -173.744043 
L 361.469388 -175.654441 
L 354.636735 -176.550703 
L 347.804082 -177.408538 
L 340.971429 -178.119196 
L 334.138776 -178.518962 
L 327.306122 -179.073449 
L 320.473469 -180.493147 
L 313.640816 -182.420482 
L 306.808163 -183.088097 
L 299.97551 -184.862293 
L 293.142857 -186.041409 
L 286.310204 -185.999301 
L 279.477551 -187.834304 
L 272.644898 -188.822915 
L 265.812245 -190.398961 
L 258.979592 -190.915063 
L 252.146939 -192.725327 
L 245.314286 -193.613137 
L 238.481633 -195.189497 
L 231.64898 -195.806219 
L 224.816327 -197.603041 
L 217.983673 -198.554358 
L 211.15102 -200.553174 
L 204.318367 -201.655077 
L 197.485714 -202.967331 
L 190.653061 -204.926459 
L 183.820408 -206.815642 
L 176.987755 -207.742657 
L 170.155102 -209.353124 
L 163.322449 -210.593919 
L 156.489796 -212.520323 
L 149.657143 -213.338722 
L 142.82449 -214.085669 
L 135.991837 -215.207149 
L 129.159184 -217.451546 
L 122.326531 -219.735406 
L 115.493878 -221.704001 
L 108.661224 -222.986277 
L 101.828571 -223.690541 
L 94.995918 -224.947255 
L 88.163265 -228.173806 
L 81.330612 -231.76963 
L 74.497959 -235.582796 
L 67.665306 -248.366064 
L 60.832653 -264.129468 
L 54 -290.387499 
z
" style="stroke: #55a868; stroke-opacity: 0.2"/>
    </defs>
    <g clip-path="url(#p905f8f33e2)">
     <use xlink:href="#m562a304b0a" x="0" y="360" style="fill: #55a868; fill-opacity: 0.2; stroke: #55a868; stroke-opacity: 0.2"/>
    </g>
   </g>
   <g id="PolyCollection_4">
    <defs>
     <path id="md9424f3e35" d="M 54 -221.067821 
L 54 -204.448439 
L 60.832653 -164.816731 
L 67.665306 -144.536971 
L 74.497959 -132.178724 
L 81.330612 -127.66747 
L 88.163265 -123.713241 
L 94.995918 -121.159424 
L 101.828571 -120.464593 
L 108.661224 -119.388129 
L 115.493878 -118.402494 
L 122.326531 -116.941169 
L 129.159184 -115.340996 
L 135.991837 -113.963857 
L 142.82449 -113.666181 
L 149.657143 -113.299284 
L 156.489796 -112.085945 
L 163.322449 -111.194537 
L 170.155102 -109.85127 
L 176.987755 -109.370803 
L 183.820408 -108.942946 
L 190.653061 -107.944701 
L 197.485714 -107.07007 
L 204.318367 -105.534391 
L 211.15102 -104.563403 
L 217.983673 -103.742771 
L 224.816327 -103.032219 
L 231.64898 -102.789136 
L 238.481633 -102.037158 
L 245.314286 -101.744872 
L 252.146939 -100.664601 
L 258.979592 -99.805689 
L 265.812245 -98.784102 
L 272.644898 -98.739127 
L 279.477551 -98.432216 
L 286.310204 -97.867082 
L 293.142857 -97.846125 
L 299.97551 -97.814403 
L 306.808163 -96.999071 
L 313.640816 -96.283472 
L 320.473469 -95.404075 
L 327.306122 -95.439411 
L 334.138776 -95.407773 
L 340.971429 -95.40275 
L 347.804082 -95.498493 
L 354.636735 -95.732064 
L 361.469388 -96.08724 
L 368.302041 -94.816298 
L 375.134694 -94.069249 
L 381.967347 -93.524298 
L 388.8 -93.128242 
L 388.8 -97.444708 
L 388.8 -97.444708 
L 381.967347 -98.077485 
L 375.134694 -98.310102 
L 368.302041 -99.072162 
L 361.469388 -100.11333 
L 354.636735 -100.339869 
L 347.804082 -100.186136 
L 340.971429 -99.952129 
L 334.138776 -100.140949 
L 327.306122 -100.384611 
L 320.473469 -100.190172 
L 313.640816 -101.322637 
L 306.808163 -102.110171 
L 299.97551 -102.292957 
L 293.142857 -103.161577 
L 286.310204 -102.907301 
L 279.477551 -103.761332 
L 272.644898 -104.046494 
L 265.812245 -104.64742 
L 258.979592 -105.801602 
L 252.146939 -106.478874 
L 245.314286 -107.289261 
L 238.481633 -107.990072 
L 231.64898 -108.82038 
L 224.816327 -109.078539 
L 217.983673 -110.146151 
L 211.15102 -111.327521 
L 204.318367 -112.720324 
L 197.485714 -113.928885 
L 190.653061 -115.48346 
L 183.820408 -116.672286 
L 176.987755 -117.439679 
L 170.155102 -118.256356 
L 163.322449 -119.22954 
L 156.489796 -120.755319 
L 149.657143 -121.755676 
L 142.82449 -122.762392 
L 135.991837 -123.285959 
L 129.159184 -124.711261 
L 122.326531 -127.471805 
L 115.493878 -129.491154 
L 108.661224 -130.232743 
L 101.828571 -131.809617 
L 94.995918 -133.03173 
L 88.163265 -135.8804 
L 81.330612 -140.970091 
L 74.497959 -146.193454 
L 67.665306 -160.384614 
L 60.832653 -183.327058 
L 54 -221.067821 
z
" style="stroke: #c44e52; stroke-opacity: 0.2"/>
    </defs>
    <g clip-path="url(#p905f8f33e2)">
     <use xlink:href="#md9424f3e35" x="0" y="360" style="fill: #c44e52; fill-opacity: 0.2; stroke: #c44e52; stroke-opacity: 0.2"/>
    </g>
   </g>
   <g id="PolyCollection_5">
    <defs>
     <path id="macbd750d5e" d="M 54 -219.975606 
L 54 -202.78578 
L 60.832653 -163.279994 
L 67.665306 -142.775913 
L 74.497959 -130.949295 
L 81.330612 -126.440407 
L 88.163265 -123.043971 
L 94.995918 -120.087176 
L 101.828571 -119.33144 
L 108.661224 -118.747958 
L 115.493878 -117.891911 
L 122.326531 -116.895056 
L 129.159184 -114.784895 
L 135.991837 -113.553632 
L 142.82449 -112.828337 
L 149.657143 -112.49058 
L 156.489796 -111.268502 
L 163.322449 -110.426133 
L 170.155102 -109.722737 
L 176.987755 -108.787038 
L 183.820408 -108.080523 
L 190.653061 -107.419693 
L 197.485714 -106.297601 
L 204.318367 -105.344048 
L 211.15102 -104.119577 
L 217.983673 -103.237575 
L 224.816327 -102.54275 
L 231.64898 -102.150972 
L 238.481633 -101.614058 
L 245.314286 -101.162418 
L 252.146939 -100.296318 
L 258.979592 -99.131136 
L 265.812245 -98.64733 
L 272.644898 -98.279267 
L 279.477551 -98.04119 
L 286.310204 -97.519812 
L 293.142857 -97.656912 
L 299.97551 -97.485952 
L 306.808163 -96.67816 
L 313.640816 -95.930223 
L 320.473469 -95.351754 
L 327.306122 -95.338484 
L 334.138776 -95.365474 
L 340.971429 -95.30183 
L 347.804082 -95.360031 
L 354.636735 -95.661312 
L 361.469388 -95.931163 
L 368.302041 -94.747755 
L 375.134694 -94.003236 
L 381.967347 -93.600101 
L 388.8 -92.76974 
L 388.8 -96.882853 
L 388.8 -96.882853 
L 381.967347 -97.710486 
L 375.134694 -98.011421 
L 368.302041 -98.711073 
L 361.469388 -99.940444 
L 354.636735 -99.888746 
L 347.804082 -99.747968 
L 340.971429 -99.785401 
L 334.138776 -99.904176 
L 327.306122 -100.051837 
L 320.473469 -99.683163 
L 313.640816 -100.576431 
L 306.808163 -101.581119 
L 299.97551 -101.940553 
L 293.142857 -102.426184 
L 286.310204 -102.652476 
L 279.477551 -102.976446 
L 272.644898 -103.330429 
L 265.812245 -103.934385 
L 258.979592 -104.901794 
L 252.146939 -105.67309 
L 245.314286 -106.378906 
L 238.481633 -107.111466 
L 231.64898 -107.807654 
L 224.816327 -108.206506 
L 217.983673 -109.295388 
L 211.15102 -109.976987 
L 204.318367 -111.933802 
L 197.485714 -112.483854 
L 190.653061 -114.171369 
L 183.820408 -115.073135 
L 176.987755 -115.866492 
L 170.155102 -116.89819 
L 163.322449 -117.748881 
L 156.489796 -119.221705 
L 149.657143 -120.122096 
L 142.82449 -121.55414 
L 135.991837 -121.942721 
L 129.159184 -123.649927 
L 122.326531 -126.112145 
L 115.493878 -128.354258 
L 108.661224 -129.237127 
L 101.828571 -129.840761 
L 94.995918 -131.845777 
L 88.163265 -134.504724 
L 81.330612 -139.319555 
L 74.497959 -143.899495 
L 67.665306 -158.805144 
L 60.832653 -181.431898 
L 54 -219.975606 
z
" style="stroke: #8172b3; stroke-opacity: 0.2"/>
    </defs>
    <g clip-path="url(#p905f8f33e2)">
     <use xlink:href="#macbd750d5e" x="0" y="360" style="fill: #8172b3; fill-opacity: 0.2; stroke: #8172b3; stroke-opacity: 0.2"/>
    </g>
   </g>
   <g id="PolyCollection_6">
    <defs>
     <path id="m799a8c3795" d="M 54 -187.849609 
L 54 -172.817185 
L 60.832653 -131.544504 
L 67.665306 -107.470522 
L 74.497959 -92.763371 
L 81.330612 -87.787919 
L 88.163265 -83.048438 
L 94.995918 -79.953037 
L 101.828571 -78.580704 
L 108.661224 -77.848216 
L 115.493878 -76.987188 
L 122.326531 -75.181638 
L 129.159184 -73.53815 
L 135.991837 -72.172045 
L 142.82449 -72.919211 
L 149.657143 -72.600936 
L 156.489796 -72.790259 
L 163.322449 -72.771347 
L 170.155102 -73.495774 
L 176.987755 -73.954203 
L 183.820408 -74.732008 
L 190.653061 -75.59477 
L 197.485714 -76.039788 
L 204.318367 -76.725017 
L 211.15102 -77.081449 
L 217.983673 -77.73543 
L 224.816327 -79.277498 
L 231.64898 -80.64269 
L 238.481633 -82.251694 
L 245.314286 -83.636067 
L 252.146939 -84.89082 
L 258.979592 -85.993653 
L 265.812245 -87.025682 
L 272.644898 -88.534693 
L 279.477551 -90.000456 
L 286.310204 -91.360683 
L 293.142857 -93.186037 
L 299.97551 -94.666607 
L 306.808163 -95.520745 
L 313.640816 -96.328726 
L 320.473469 -96.857216 
L 327.306122 -98.24858 
L 334.138776 -99.299314 
L 340.971429 -100.330748 
L 347.804082 -101.467006 
L 354.636735 -102.508976 
L 361.469388 -103.699926 
L 368.302041 -103.118019 
L 375.134694 -103.096411 
L 381.967347 -103.434718 
L 388.8 -103.155837 
L 388.8 -105.178527 
L 388.8 -105.178527 
L 381.967347 -105.354957 
L 375.134694 -105.394877 
L 368.302041 -105.21676 
L 361.469388 -105.552585 
L 354.636735 -104.626781 
L 347.804082 -103.223571 
L 340.971429 -102.169366 
L 334.138776 -101.179357 
L 327.306122 -100.091601 
L 320.473469 -98.496375 
L 313.640816 -97.822312 
L 306.808163 -97.087115 
L 299.97551 -96.395272 
L 293.142857 -95.133189 
L 286.310204 -93.073936 
L 279.477551 -92.000345 
L 272.644898 -90.12947 
L 265.812245 -88.835337 
L 258.979592 -88.244322 
L 252.146939 -87.329322 
L 245.314286 -86.625912 
L 238.481633 -84.821679 
L 231.64898 -83.661823 
L 224.816327 -82.389514 
L 217.983673 -80.710548 
L 211.15102 -80.307284 
L 204.318367 -79.98769 
L 197.485714 -79.320117 
L 190.653061 -78.634915 
L 183.820408 -78.410539 
L 176.987755 -77.591965 
L 170.155102 -77.371507 
L 163.322449 -76.461528 
L 156.489796 -76.639223 
L 149.657143 -76.536127 
L 142.82449 -76.297182 
L 135.991837 -75.390685 
L 129.159184 -76.678335 
L 122.326531 -78.372766 
L 115.493878 -79.957443 
L 108.661224 -80.507568 
L 101.828571 -81.561457 
L 94.995918 -82.993278 
L 88.163265 -87.833846 
L 81.330612 -93.971018 
L 74.497959 -99.696647 
L 67.665306 -118.430458 
L 60.832653 -145.878534 
L 54 -187.849609 
z
" style="stroke: #937860; stroke-opacity: 0.2"/>
    </defs>
    <g clip-path="url(#p905f8f33e2)">
     <use xlink:href="#m799a8c3795" x="0" y="360" style="fill: #937860; fill-opacity: 0.2; stroke: #937860; stroke-opacity: 0.2"/>
    </g>
   </g>
   <g id="PolyCollection_7">
    <defs>
     <path id="m9acbccc719" d="M 54 -176.754813 
L 54 -164.252683 
L 60.832653 -118.854959 
L 67.665306 -97.115103 
L 74.497959 -85.256956 
L 81.330612 -81.25413 
L 88.163265 -77.964754 
L 94.995918 -76.537366 
L 101.828571 -76.429648 
L 108.661224 -77.202017 
L 115.493878 -77.228903 
L 122.326531 -76.743215 
L 129.159184 -76.050737 
L 135.991837 -75.895913 
L 142.82449 -77.108149 
L 149.657143 -77.822916 
L 156.489796 -78.489168 
L 163.322449 -78.759513 
L 170.155102 -79.770169 
L 176.987755 -80.173771 
L 183.820408 -81.522535 
L 190.653061 -82.592294 
L 197.485714 -82.835805 
L 204.318367 -83.663011 
L 211.15102 -84.077014 
L 217.983673 -84.675351 
L 224.816327 -85.670483 
L 231.64898 -86.743756 
L 238.481633 -87.866762 
L 245.314286 -88.554813 
L 252.146939 -89.480932 
L 258.979592 -90.090068 
L 265.812245 -90.813874 
L 272.644898 -91.791882 
L 279.477551 -92.740429 
L 286.310204 -93.47075 
L 293.142857 -94.924055 
L 299.97551 -95.773217 
L 306.808163 -96.458769 
L 313.640816 -96.74793 
L 320.473469 -96.918572 
L 327.306122 -97.733934 
L 334.138776 -98.548564 
L 340.971429 -99.238839 
L 347.804082 -100.062275 
L 354.636735 -100.918463 
L 361.469388 -101.803022 
L 368.302041 -101.120198 
L 375.134694 -100.768389 
L 381.967347 -101.176706 
L 388.8 -100.793464 
L 388.8 -102.273103 
L 388.8 -102.273103 
L 381.967347 -102.570841 
L 375.134694 -102.656345 
L 368.302041 -102.662169 
L 361.469388 -103.321543 
L 354.636735 -102.548022 
L 347.804082 -101.675215 
L 340.971429 -100.85234 
L 334.138776 -100.326385 
L 327.306122 -99.523987 
L 320.473469 -98.263007 
L 313.640816 -97.98586 
L 306.808163 -97.963148 
L 299.97551 -97.137388 
L 293.142857 -96.44884 
L 286.310204 -94.859083 
L 279.477551 -94.1224 
L 272.644898 -92.905451 
L 265.812245 -92.146507 
L 258.979592 -91.61769 
L 252.146939 -91.301841 
L 245.314286 -90.50735 
L 238.481633 -89.372109 
L 231.64898 -88.490111 
L 224.816327 -87.44432 
L 217.983673 -86.640733 
L 211.15102 -85.890672 
L 204.318367 -85.587827 
L 197.485714 -85.252787 
L 190.653061 -84.381597 
L 183.820408 -83.647218 
L 176.987755 -82.969497 
L 170.155102 -82.300328 
L 163.322449 -81.280959 
L 156.489796 -80.962535 
L 149.657143 -80.631762 
L 142.82449 -79.600697 
L 135.991837 -78.555976 
L 129.159184 -78.889521 
L 122.326531 -79.601456 
L 115.493878 -80.151461 
L 108.661224 -79.441271 
L 101.828571 -78.603561 
L 94.995918 -78.583114 
L 88.163265 -81.147032 
L 81.330612 -85.186452 
L 74.497959 -89.531381 
L 67.665306 -105.454584 
L 60.832653 -131.436555 
L 54 -176.754813 
z
" style="stroke: #da8bc3; stroke-opacity: 0.2"/>
    </defs>
    <g clip-path="url(#p905f8f33e2)">
     <use xlink:href="#m9acbccc719" x="0" y="360" style="fill: #da8bc3; fill-opacity: 0.2; stroke: #da8bc3; stroke-opacity: 0.2"/>
    </g>
   </g>
   <g id="line2d_16">
    <path d="M 54 76.684147 
L 60.832653 104.407871 
L 67.665306 121.358085 
L 74.497959 132.45814 
L 81.330612 136.157085 
L 88.163265 139.704351 
L 94.995918 142.825407 
L 101.828571 144.023233 
L 108.661224 145.315653 
L 115.493878 146.479779 
L 122.326531 148.346823 
L 129.159184 150.361702 
L 135.991837 152.355127 
L 142.82449 152.933264 
L 149.657143 154.145715 
L 156.489796 155.477234 
L 163.322449 157.109599 
L 170.155102 158.189859 
L 176.987755 159.748135 
L 183.820408 160.785569 
L 190.653061 162.164634 
L 197.485714 163.690494 
L 204.318367 165.324238 
L 211.15102 166.969166 
L 217.983673 168.535329 
L 224.816327 169.556822 
L 231.64898 170.695898 
L 238.481633 171.919001 
L 245.314286 172.91319 
L 252.146939 174.343115 
L 258.979592 175.88417 
L 265.812245 177.394636 
L 272.644898 178.506415 
L 279.477551 179.358685 
L 286.310204 180.514857 
L 293.142857 181.107669 
L 299.97551 182.116041 
L 306.808163 183.603496 
L 313.640816 184.960863 
L 320.473469 186.280949 
L 327.306122 187.010387 
L 334.138776 187.961897 
L 340.971429 188.946988 
L 347.804082 189.78652 
L 354.636735 190.451085 
L 361.469388 191.130464 
L 368.302041 192.970687 
L 375.134694 194.304147 
L 381.967347 195.353098 
L 388.8 196.741865 
" clip-path="url(#p905f8f33e2)" style="fill: none; stroke: #4c72b0; stroke-width: 1.5; stroke-linecap: round"/>
   </g>
   <g id="line2d_17">
    <path d="M 54 78.485269 
L 60.832653 107.8988 
L 67.665306 124.901186 
L 74.497959 136.054218 
L 81.330612 139.511727 
L 88.163265 142.687004 
L 94.995918 145.893486 
L 101.828571 147.183228 
L 108.661224 148.385959 
L 115.493878 149.634772 
L 122.326531 151.40886 
L 129.159184 153.315264 
L 135.991837 155.246321 
L 142.82449 155.809747 
L 149.657143 157.010957 
L 156.489796 158.311567 
L 163.322449 159.940653 
L 170.155102 161.03511 
L 176.987755 162.651631 
L 183.820408 163.663579 
L 190.653061 164.895665 
L 197.485714 166.368224 
L 204.318367 167.91728 
L 211.15102 169.446093 
L 217.983673 171.024507 
L 224.816327 172.086646 
L 231.64898 173.270153 
L 238.481633 174.448066 
L 245.314286 175.404624 
L 252.146939 176.785139 
L 258.979592 178.314105 
L 265.812245 179.698184 
L 272.644898 180.884408 
L 279.477551 181.61623 
L 286.310204 182.78622 
L 293.142857 183.38331 
L 299.97551 184.34304 
L 306.808163 185.677999 
L 313.640816 187.089588 
L 320.473469 188.317673 
L 327.306122 189.001968 
L 334.138776 189.884425 
L 340.971429 190.857697 
L 347.804082 191.72759 
L 354.636735 192.336091 
L 361.469388 193.020068 
L 368.302041 194.762767 
L 375.134694 196.101105 
L 381.967347 197.194124 
L 388.8 198.557564 
" clip-path="url(#p905f8f33e2)" style="fill: none; stroke: #dd8452; stroke-width: 1.5; stroke-linecap: round"/>
   </g>
   <g id="line2d_18">
    <path d="M 54 79.251959 
L 60.832653 106.803593 
L 67.665306 123.828281 
L 74.497959 134.943623 
L 81.330612 138.713211 
L 88.163265 142.33389 
L 94.995918 145.413844 
L 101.828571 146.641791 
L 108.661224 147.896953 
L 115.493878 149.059469 
L 122.326531 150.960916 
L 129.159184 152.967015 
L 135.991837 154.952525 
L 142.82449 155.531023 
L 149.657143 156.8077 
L 156.489796 158.129081 
L 163.322449 159.723041 
L 170.155102 160.799653 
L 176.987755 162.265698 
L 183.820408 163.374842 
L 190.653061 164.684739 
L 197.485714 166.270545 
L 204.318367 167.871866 
L 211.15102 169.51268 
L 217.983673 171.013826 
L 224.816327 172.115335 
L 231.64898 173.208969 
L 238.481633 174.42421 
L 245.314286 175.426141 
L 252.146939 176.789929 
L 258.979592 178.304281 
L 265.812245 179.827399 
L 272.644898 180.922512 
L 279.477551 181.789416 
L 286.310204 182.899479 
L 293.142857 183.459851 
L 299.97551 184.443364 
L 306.808163 185.912017 
L 313.640816 187.242554 
L 320.473469 188.545128 
L 327.306122 189.261159 
L 334.138776 190.233907 
L 340.971429 191.211046 
L 347.804082 192.071835 
L 354.636735 192.702612 
L 361.469388 193.370003 
L 368.302041 195.180362 
L 375.134694 196.519623 
L 381.967347 197.539692 
L 388.8 198.950703 
" clip-path="url(#p905f8f33e2)" style="fill: none; stroke: #55a868; stroke-width: 1.5; stroke-linecap: round"/>
   </g>
   <g id="line2d_19">
    <path d="M 54 147.10522 
L 60.832653 186.074582 
L 67.665306 207.432598 
L 74.497959 220.968795 
L 81.330612 225.662406 
L 88.163265 230.050353 
L 94.995918 233.011074 
L 101.828571 234.162495 
L 108.661224 234.944785 
L 115.493878 235.764152 
L 122.326531 237.58039 
L 129.159184 239.831502 
L 135.991837 241.444891 
L 142.82449 241.908434 
L 149.657143 242.747303 
L 156.489796 243.816315 
L 163.322449 245.012539 
L 170.155102 245.787638 
L 176.987755 246.684127 
L 183.820408 247.480172 
L 190.653061 248.470348 
L 197.485714 249.656925 
L 204.318367 250.880297 
L 211.15102 252.303348 
L 217.983673 253.365257 
L 224.816327 253.957684 
L 231.64898 254.49146 
L 238.481633 255.223682 
L 245.314286 255.71407 
L 252.146939 256.473266 
L 258.979592 257.451946 
L 265.812245 258.348756 
L 272.644898 258.842523 
L 279.477551 259.162228 
L 286.310204 259.718169 
L 293.142857 259.609667 
L 299.97551 259.999437 
L 306.808163 260.716053 
L 313.640816 261.524838 
L 320.473469 262.239685 
L 327.306122 262.268101 
L 334.138776 262.292808 
L 340.971429 262.462919 
L 347.804082 262.364258 
L 354.636735 262.126048 
L 361.469388 261.999874 
L 368.302041 263.30166 
L 375.134694 263.95806 
L 381.967347 264.335999 
L 388.8 264.973541 
" clip-path="url(#p905f8f33e2)" style="fill: none; stroke: #c44e52; stroke-width: 1.5; stroke-linecap: round"/>
   </g>
   <g id="line2d_20">
    <path d="M 54 147.789289 
L 60.832653 187.791265 
L 67.665306 209.106492 
L 74.497959 222.547954 
L 81.330612 227.095107 
L 88.163265 231.204566 
L 94.995918 234.194751 
L 101.828571 235.399194 
L 108.661224 236.092145 
L 115.493878 236.963057 
L 122.326531 238.751995 
L 129.159184 240.873256 
L 135.991837 242.412914 
L 142.82449 242.991867 
L 149.657143 243.880557 
L 156.489796 244.901313 
L 163.322449 246.073261 
L 170.155102 246.796549 
L 176.987755 247.720965 
L 183.820408 248.487196 
L 190.653061 249.297141 
L 197.485714 250.563865 
L 204.318367 251.655456 
L 211.15102 252.996597 
L 217.983673 253.957715 
L 224.816327 254.616961 
L 231.64898 255.250697 
L 238.481633 255.874402 
L 245.314286 256.449976 
L 252.146939 257.125352 
L 258.979592 258.097268 
L 265.812245 258.805373 
L 272.644898 259.393107 
L 279.477551 259.6309 
L 286.310204 260.224705 
L 293.142857 260.070696 
L 299.97551 260.505152 
L 306.808163 261.039115 
L 313.640816 261.914662 
L 320.473469 262.530305 
L 327.306122 262.479509 
L 334.138776 262.490079 
L 340.971429 262.656807 
L 347.804082 262.601789 
L 354.636735 262.407598 
L 361.469388 262.274489 
L 368.302041 263.475684 
L 375.134694 264.168302 
L 381.967347 264.526386 
L 388.8 265.213246 
" clip-path="url(#p905f8f33e2)" style="fill: none; stroke: #8172b3; stroke-width: 1.5; stroke-linecap: round"/>
   </g>
   <g id="line2d_21">
    <path d="M 54 179.533376 
L 60.832653 221.278741 
L 67.665306 246.705848 
L 74.497959 263.942239 
L 81.330612 269.191011 
L 88.163265 274.560885 
L 94.995918 278.600808 
L 101.828571 279.890424 
L 108.661224 280.841454 
L 115.493878 281.49282 
L 122.326531 283.166125 
L 129.159184 284.931672 
L 135.991837 286.111777 
L 142.82449 285.387033 
L 149.657143 285.33606 
L 156.489796 285.238672 
L 163.322449 285.30748 
L 170.155102 284.534531 
L 176.987755 284.180044 
L 183.820408 283.383509 
L 190.653061 282.782156 
L 197.485714 282.268474 
L 204.318367 281.668276 
L 211.15102 281.332597 
L 217.983673 280.708499 
L 224.816327 279.140262 
L 231.64898 277.869802 
L 238.481633 276.462903 
L 245.314286 274.830729 
L 252.146939 273.811234 
L 258.979592 272.847919 
L 265.812245 272.054957 
L 272.644898 270.675906 
L 279.477551 268.99803 
L 286.310204 267.745578 
L 293.142857 265.826087 
L 299.97551 264.426142 
L 306.808163 263.710526 
L 313.640816 262.939262 
L 320.473469 262.332325 
L 327.306122 260.855713 
L 334.138776 259.802328 
L 340.971429 258.800182 
L 347.804082 257.610196 
L 354.636735 256.407217 
L 361.469388 255.339173 
L 368.302041 255.831075 
L 375.134694 255.768332 
L 381.967347 255.602088 
L 388.8 255.859362 
" clip-path="url(#p905f8f33e2)" style="fill: none; stroke: #937860; stroke-width: 1.5; stroke-linecap: round"/>
   </g>
   <g id="line2d_22">
    <path d="M 54 189.802015 
L 60.832653 234.876995 
L 67.665306 258.449435 
L 74.497959 272.631904 
L 81.330612 276.740163 
L 88.163265 280.393947 
L 94.995918 282.469874 
L 101.828571 282.463971 
L 108.661224 281.659551 
L 115.493878 281.270908 
L 122.326531 281.757287 
L 129.159184 282.608438 
L 135.991837 282.753153 
L 142.82449 281.623952 
L 149.657143 280.771917 
L 156.489796 280.271612 
L 163.322449 279.840515 
L 170.155102 278.916546 
L 176.987755 278.241766 
L 183.820408 277.360379 
L 190.653061 276.43611 
L 197.485714 276.003289 
L 204.318367 275.334571 
L 211.15102 275.029975 
L 217.983673 274.381186 
L 224.816327 273.373634 
L 231.64898 272.367126 
L 238.481633 271.385864 
L 245.314286 270.501062 
L 252.146939 269.601507 
L 258.979592 269.167189 
L 265.812245 268.512377 
L 272.644898 267.652192 
L 279.477551 266.576378 
L 286.310204 265.84378 
L 293.142857 264.298438 
L 299.97551 263.497969 
L 306.808163 262.800255 
L 313.640816 262.660769 
L 320.473469 262.407652 
L 327.306122 261.36728 
L 334.138776 260.575888 
L 340.971429 259.94116 
L 347.804082 259.128781 
L 354.636735 258.226709 
L 361.469388 257.465106 
L 368.302041 258.114414 
L 375.134694 258.281698 
L 381.967347 258.160112 
L 388.8 258.453047 
" clip-path="url(#p905f8f33e2)" style="fill: none; stroke: #da8bc3; stroke-width: 1.5; stroke-linecap: round"/>
   </g>
   <g id="line2d_23"/>
   <g id="line2d_24"/>
   <g id="line2d_25"/>
   <g id="line2d_26"/>
   <g id="line2d_27"/>
   <g id="line2d_28"/>
   <g id="line2d_29"/>
   <g id="LineCollection_1">
    <path d="M 47.167347 264.96 
L 388.8 264.96 
" clip-path="url(#p905f8f33e2)" style="fill: none; stroke-dasharray: 5.55,2.4; stroke-dashoffset: 0; stroke: #808080; stroke-opacity: 0.8; stroke-width: 1.5"/>
   </g>
   <g id="patch_3">
    <path d="M 54 320.4 
L 54 43.2 
" style="fill: none; stroke: #ffffff; stroke-width: 1.25; stroke-linejoin: miter; stroke-linecap: square"/>
   </g>
   <g id="patch_4">
    <path d="M 388.8 320.4 
L 388.8 43.2 
" style="fill: none; stroke: #ffffff; stroke-width: 1.25; stroke-linejoin: miter; stroke-linecap: square"/>
   </g>
   <g id="patch_5">
    <path d="M 54 320.4 
L 388.8 320.4 
" style="fill: none; stroke: #ffffff; stroke-width: 1.25; stroke-linejoin: miter; stroke-linecap: square"/>
   </g>
   <g id="patch_6">
    <path d="M 54 43.2 
L 388.8 43.2 
" style="fill: none; stroke: #ffffff; stroke-width: 1.25; stroke-linejoin: miter; stroke-linecap: square"/>
   </g>
   <g id="legend_1"/>
  </g>
 </g>
 <defs>
  <clipPath id="p905f8f33e2">
   <rect x="54" y="43.2" width="334.8" height="277.2"/>
  </clipPath>
 </defs>
</svg>
